<svg xmlns="http://www.w3.org/2000/svg" width="240" height="135" viewBox="0 0 240 135" version="1.1"><path d="M 93.133 3.703 C 87.377 6.422, 76.633 7.303, 68.500 5.723 L 64.500 4.945 62.247 8.288 L 59.995 11.632 63.747 18.949 L 67.500 26.266 67.496 35.383 L 67.492 44.500 63.889 52.052 C 61.908 56.206, 58.806 61.291, 56.996 63.352 L 53.705 67.100 56.852 70.348 C 59.541 73.122, 60 74.334, 60 78.661 C 60 104.079, 76.620 122.122, 103.544 125.935 C 108.840 126.685, 110.987 127.568, 114.485 130.434 C 119.853 134.833, 120.147 134.833, 125.515 130.434 C 129.013 127.568, 131.160 126.685, 136.456 125.935 C 163.380 122.122, 180 104.079, 180 78.661 C 180 74.334, 180.459 73.122, 183.148 70.348 L 186.295 67.100 183.140 63.507 C 171.717 50.496, 169.146 32.925, 176.535 18.366 L 180.228 11.091 177.864 8.070 L 175.500 5.049 171.500 5.774 C 163.020 7.313, 152.642 6.400, 146.311 3.559 L 140.336 0.878 135.642 3.373 C 125.370 8.835, 114.669 8.856, 104.473 3.434 C 99.052 0.552, 99.839 0.534, 93.133 3.703 M 94.787 5.049 C 89.538 7.821, 77.811 9.292, 71.104 8.020 C 68.147 7.459, 65.574 7, 65.387 7 C 65.199 7, 64.381 8.015, 63.568 9.256 L 62.090 11.511 65.469 18.226 C 72.645 32.483, 70.094 50.105, 58.808 64.245 L 56.617 66.990 59.308 69.800 C 61.665 72.260, 62 73.416, 62 79.095 C 62 104.436, 82.776 124.789, 108.841 124.983 C 110.129 124.992, 113.022 126.575, 115.271 128.500 C 117.520 130.425, 119.728 132, 120.177 132 C 120.627 132, 122.738 130.425, 124.868 128.500 C 126.999 126.575, 129.813 124.992, 131.121 124.983 C 157.117 124.793, 177.945 104.604, 177.988 79.555 C 177.999 73.429, 178.310 72.286, 180.626 69.869 L 183.251 67.128 179.192 61.050 C 172.843 51.541, 170.657 44.928, 170.584 35 L 170.522 26.500 173.966 19.500 C 175.860 15.650, 177.558 12.231, 177.738 11.901 C 177.918 11.572, 177.263 10.321, 176.283 9.121 L 174.500 6.940 169.009 7.990 C 162.092 9.312, 150.583 7.848, 144.831 4.914 L 140.718 2.816 135.109 5.658 L 129.500 8.500 119.958 8.500 C 111.501 8.500, 109.814 8.188, 105.116 5.750 C 98.895 2.522, 99.495 2.563, 94.787 5.049 M 98 64 C 98 67.333, 98.444 70, 99 70 C 99.550 70, 100 68.860, 100 67.468 C 100 65.776, 100.747 64.635, 102.250 64.031 L 104.500 63.127 102.177 63.063 C 98.384 62.960, 99.850 59.619, 104.011 58.882 L 107.500 58.263 102.750 58.132 L 98 58 98 64 M 115.200 59.200 C 111.751 62.649, 114.433 70, 119.141 70 C 120.649 70, 122.201 69.484, 122.590 68.854 C 123.086 68.051, 122.527 67.902, 120.721 68.355 C 119.006 68.786, 117.619 68.476, 116.572 67.429 C 113.110 63.967, 116.040 58.470, 120.721 59.645 C 122.527 60.098, 123.086 59.949, 122.590 59.146 C 121.658 57.638, 116.726 57.674, 115.200 59.200 M 132 64 L 132 70.115 136.250 69.807 L 140.500 69.500 140.500 64 L 140.500 58.500 136.250 58.193 L 132 57.885 132 64 M 133.500 60 C 132.506 61.608, 133.925 63, 136.559 63 C 138.333 63, 139 62.454, 139 61 C 139 58.848, 134.696 58.065, 133.500 60 M 133.362 65.500 C 132.452 67.869, 134.441 69.357, 137.493 68.591 C 139.271 68.145, 140.027 67.369, 139.808 66.214 C 139.365 63.876, 134.204 63.305, 133.362 65.500" stroke="none" fill="#000000" fill-rule="evenodd"/><path d="M 75.336 34 C 75.336 38.125, 75.513 39.813, 75.728 37.750 C 75.944 35.688, 75.944 32.313, 75.728 30.250 C 75.513 28.188, 75.336 29.875, 75.336 34 M 118.336 34 C 118.336 38.125, 118.513 39.813, 118.728 37.750 C 118.944 35.688, 118.944 32.313, 118.728 30.250 C 118.513 28.188, 118.336 29.875, 118.336 34 M 93.250 53.728 C 95.313 53.944, 98.688 53.944, 100.750 53.728 C 102.813 53.513, 101.125 53.336, 97 53.336 C 92.875 53.336, 91.188 53.513, 93.250 53.728 M 82 91.977 L 82 109.954 84.431 111.547 C 85.768 112.423, 89.143 114.007, 91.931 115.066 L 97 116.992 97 95.496 L 97 74 89.500 74 L 82 74 82 91.977 M 113 78.419 L 113 82.839 116.292 81.930 C 118.341 81.364, 120.889 81.395, 123.036 82.010 C 128.001 83.434, 128 83.435, 128 78.500 L 128 74 120.500 74 L 113 74 113 78.419 M 143 94.941 C 143 118.806, 142.664 118.029, 151.128 113.734 L 157.500 110.500 157.773 92.250 L 158.045 74 150.523 74 L 143 74 143 94.941 M 113.001 114.250 L 113 119 120.500 119 L 128 119 128 114.250 L 128 109.500 120.501 109.500 L 113.003 109.500 113.001 114.250" stroke="none" fill="#c00044" fill-rule="evenodd"/><path d="M 68.267 81.250 C 69.011 90.941, 72.137 98.872, 77.521 104.720 L 81.921 109.500 81.960 91.750 L 82 74 74.856 74 L 67.711 74 68.267 81.250 M 98 95.439 L 98 116.877 102.750 117.493 C 105.362 117.832, 108.513 118.318, 109.750 118.574 L 112 119.038 112 113.569 C 112 109.935, 111.531 107.831, 110.603 107.300 C 104.403 103.749, 103.510 92.682, 108.884 85.994 C 111.223 83.084, 112 81.105, 112 78.059 L 112 74 105 74 L 98 74 98 95.439 M 128 78.059 C 128 81.065, 128.772 83.078, 130.978 85.823 C 136.258 92.393, 136.235 100.396, 130.920 106.086 C 128.331 108.858, 127.946 109.964, 128.202 113.892 L 128.500 118.470 132.699 118.162 C 135.008 117.993, 138.158 117.518, 139.699 117.106 L 142.500 116.357 142.770 95.179 L 143.040 74 135.520 74 L 128 74 128 78.059 M 159 91.196 L 159 108.392 162.414 105.083 C 167.557 100.099, 171.100 91.293, 171.744 81.899 L 172.286 74 165.643 74 L 159 74 159 91.196" stroke="none" fill="#0053a9" fill-rule="evenodd"/><path d="M 140 31.500 L 140 53 142.500 53 L 145 53 145 32.535 L 145 12.070 143.066 11.035 C 142.002 10.466, 140.877 10, 140.566 10 C 140.255 10, 140 19.675, 140 31.500 M 130.667 14.667 C 130.300 15.033, 130 23.808, 130 34.167 L 130 53 132 53 L 134 53 134 33.500 C 134 14.222, 133.566 11.768, 130.667 14.667 M 151 33.427 L 151 53 153.022 53 L 155.043 53 154.772 33.763 L 154.500 14.526 152.750 14.190 L 151 13.853 151 33.427 M 161 34 L 161 53 164 53 C 165.650 53, 166.995 52.888, 166.989 52.750 C 166.983 52.612, 166.308 50.291, 165.489 47.591 C 163.327 40.464, 163.565 28.187, 166 21.260 C 167.100 18.130, 168 15.441, 168 15.285 C 168 15.128, 166.425 15, 164.500 15 L 161 15 161 34 M 120 34.500 L 120 53 122 53 L 124 53 124 34.500 L 124 16 122 16 L 120 16 120 34.500" stroke="none" fill="#ffd700" fill-rule="evenodd"/><path d="M 105 19.433 L 105 26 111.552 26 L 118.105 26 117.802 20.773 L 117.500 15.547 113.146 14.808 C 110.751 14.401, 107.939 13.798, 106.896 13.467 L 105 12.865 105 19.433 M 71.278 15 C 71.419 15.275, 72.421 17.862, 73.502 20.750 L 75.469 26 82.735 26 L 90 26 90 20.102 L 90 14.205 80.510 14.352 C 75.291 14.434, 71.136 14.725, 71.278 15 M 75.600 42.204 C 71.974 54.837, 71.629 54.129, 81.250 53.790 L 89.500 53.500 89.500 47.500 L 89.500 41.500 82.736 41.204 C 77.851 40.990, 75.869 41.268, 75.600 42.204 M 105 47.500 L 105 54 111.500 54 L 118 54 118 47.500 L 118 41 111.500 41 L 105 41 105 47.500" stroke="none" fill="#ffffff" fill-rule="evenodd"/><path d="M 96 11.500 C 94.625 12.286, 92.713 12.945, 91.750 12.965 C 90.253 12.995, 90 14.013, 90 20 L 90 27 83 27 L 76 27 76 34 L 76 41 83 41 L 90 41 90 47 L 90 53 97 53 L 104 53 104 47 L 104 41 111 41 L 118 41 118 34.046 L 118 27.091 111.250 26.796 L 104.500 26.500 104.209 19.392 L 103.918 12.284 101.412 11.142 C 98.444 9.790, 99.064 9.749, 96 11.500 M 136.669 12.253 L 134.956 13.505 135.228 33.503 L 135.500 53.500 137.750 53.613 L 140 53.727 140 32.363 C 140 20.614, 139.636 11, 139.191 11 C 138.746 11, 137.611 11.564, 136.669 12.253 M 145 32.939 L 145 53.600 147.500 53.600 L 150 53.600 150 33.417 L 150 13.233 147.500 12.755 L 145 12.277 145 32.939 M 156 33.958 L 156.500 53.500 158.750 53.613 L 161 53.727 161 34.477 L 161 15.227 158.250 14.822 L 155.500 14.417 156 33.958 M 125.250 15.662 C 124.312 16.041, 124 20.846, 124 34.883 L 124 53.600 126.500 53.600 L 129 53.600 129 34.300 C 129 14.574, 128.921 14.181, 125.250 15.662" stroke="none" fill="#ff0a31" fill-rule="evenodd"/><path d="M 71 54.250 C 71 54.663, 93.050 55, 120 55 C 146.950 55, 169 54.663, 169 54.250 C 169 53.837, 146.950 53.500, 120 53.500 C 93.050 53.500, 71 53.837, 71 54.250 M 131.412 58.369 C 131.123 59.122, 131.024 62.160, 131.193 65.119 L 131.500 70.500 135.259 70.605 L 139.017 70.710 135.509 70.294 L 132 69.879 132 64 L 132 58.121 135.750 57.728 L 139.500 57.336 135.719 57.168 C 133.314 57.061, 131.746 57.498, 131.412 58.369 M 100.667 59.667 C 99.229 61.104, 100.114 63.003, 102.250 63.063 L 104.500 63.127 102.250 64.031 C 100.775 64.624, 100 65.779, 100 67.384 C 100 68.731, 99.539 70.062, 98.975 70.342 C 98.411 70.621, 98.524 70.737, 99.225 70.598 C 99.926 70.459, 100.642 69.143, 100.816 67.673 C 100.990 66.203, 101.751 65, 102.507 65 C 104.853 65, 105.318 62.896, 103.101 62.316 C 99.975 61.499, 100.559 60.181, 104.250 59.723 L 107.500 59.320 104.417 59.160 C 102.721 59.072, 101.033 59.300, 100.667 59.667 M 133.362 65.500 C 132.547 67.622, 134.282 69.318, 136.644 68.710 C 138.172 68.317, 138.102 68.211, 136.250 68.116 C 134.968 68.050, 134 67.355, 134 66.500 C 134 64.500, 138.704 64.518, 139.325 66.520 C 139.656 67.586, 139.750 67.512, 139.640 66.270 C 139.427 63.871, 134.231 63.235, 133.362 65.500 M 67 78.790 C 67 91.086, 72.158 102.843, 80.352 109.224 L 84.500 112.454 78.835 106.262 C 72.115 98.917, 69.069 91.708, 68.267 81.250 L 67.711 74 82.356 74 L 97 74 97 95.878 L 97 117.757 104.541 118.878 C 116.613 120.674, 135.848 119.957, 142.893 117.449 C 145.759 116.428, 143.232 116.074, 139.934 117.033 C 138.045 117.583, 131.213 118.317, 124.750 118.665 L 113 119.298 113 114.130 L 113 108.962 115.750 109.487 L 118.500 110.012 115.500 108.820 L 112.500 107.627 115 106.913 C 117.168 106.294, 117.007 106.186, 113.785 106.100 C 108.681 105.963, 106.874 102.868, 110.791 100.973 C 112.281 100.252, 114.400 99.734, 115.500 99.822 L 117.500 99.982 115.315 99.047 C 111.454 97.395, 108.950 84.018, 112.500 84.005 C 113.079 84.003, 113.354 81.897, 113.153 79.001 L 112.807 74 135.403 74 L 158 74 158 91.800 C 158 104.638, 157.652 109.984, 156.750 110.978 C 156.063 111.736, 157.366 110.924, 159.648 109.175 C 167.811 102.914, 173 91.106, 173 78.790 L 173 73 120 73 L 67 73 67 78.790 M 98 95.439 L 98 116.877 102.750 117.493 C 105.362 117.832, 108.513 118.318, 109.750 118.574 L 112 119.038 112 113.569 C 112 109.935, 111.531 107.831, 110.603 107.300 C 104.403 103.749, 103.510 92.682, 108.884 85.994 C 111.223 83.084, 112 81.105, 112 78.059 L 112 74 105 74 L 98 74 98 95.439 M 159 91.196 L 159 108.392 162.414 105.083 C 167.557 100.099, 171.100 91.293, 171.744 81.899 L 172.286 74 165.643 74 L 159 74 159 91.196 M 119.221 81.842 C 118.517 82.289, 117.942 83.969, 117.942 85.577 C 117.943 97.815, 118.188 99.463, 119.699 97.396 C 120.650 96.097, 120.598 95.455, 119.449 94.307 C 116.772 91.629, 118.159 87.999, 121.857 88.004 C 127.318 88.011, 135.142 95.534, 133.109 98.823 C 132.262 100.194, 127.150 98.090, 124.983 95.479 C 124.308 94.666, 123.260 94, 122.655 94 C 122.050 94, 122.555 94.701, 123.777 95.557 C 126.701 97.605, 126.583 99.555, 123.354 102.548 C 121.899 103.896, 121.043 105, 121.453 105 C 121.862 105, 123.540 103.563, 125.181 101.807 C 127.509 99.314, 128.517 98.836, 129.772 99.628 C 133.467 101.959, 131.013 106.128, 124.500 108.583 L 120.500 110.092 123.948 109.531 C 135.764 107.611, 139.105 83, 127.549 83 C 126.807 83, 127.730 84.530, 129.600 86.400 C 131.470 88.270, 133 90.598, 133 91.574 L 133 93.349 130.750 91.299 C 127.589 88.420, 124.555 87, 121.566 87 C 118.765 87, 118.020 84.380, 120.200 82.200 C 121.574 80.826, 121.098 80.651, 119.221 81.842 M 108.433 88.462 C 106.486 91.434, 105.567 97.981, 106.834 99.857 C 108.400 102.176, 112.350 100.277, 111.417 97.654 C 110.996 96.469, 110.620 93.362, 110.583 90.750 C 110.504 85.223, 110.534 85.255, 108.433 88.462" stroke="none" fill="#164576" fill-rule="evenodd"/><path d="M 93.982 5.942 L 88.500 8.500 76.771 8.529 C 61.899 8.566, 61.624 8.802, 66.092 17.708 L 69.500 24.500 69.468 35 C 69.432 47.158, 67.555 53.162, 61.167 61.560 L 57.319 66.619 60.133 69.990 C 62.046 72.281, 62.772 74.059, 62.401 75.539 C 57.090 96.698, 82.234 124, 107.030 124 C 109.710 124, 111.693 124.902, 114.729 127.500 C 119.783 131.826, 120.217 131.826, 125.271 127.500 C 128.307 124.902, 130.290 124, 132.970 124 C 157.885 124, 181.170 99.052, 177.785 75.986 C 177.500 74.047, 178.181 72.229, 180.048 69.941 L 182.719 66.669 178.851 61.584 C 172.445 53.161, 170.568 47.166, 170.532 35 L 170.500 24.500 173.945 17.745 C 178.490 8.832, 178.182 8.566, 163.229 8.529 C 152.832 8.503, 150.889 8.215, 146.116 5.987 L 140.733 3.473 134.653 6.487 C 125.757 10.896, 113.995 10.878, 105.393 6.442 L 99.464 3.384 93.982 5.942 M 94.500 10.737 C 92.300 11.635, 90.356 12.719, 90.180 13.146 C 90.004 13.573, 88.541 13.658, 86.930 13.336 C 85.079 12.966, 84 13.164, 84 13.875 C 84 15.405, 72.753 15.353, 71.217 13.817 C 70.566 13.166, 69.779 12.887, 69.469 13.198 C 69.159 13.508, 69.580 14.437, 70.405 15.262 C 71.230 16.087, 71.626 17.040, 71.286 17.381 C 70.945 17.721, 71.218 18, 71.892 18 C 72.566 18, 72.840 18.450, 72.500 19 C 72.160 19.550, 72.344 20, 72.910 20 C 73.475 20, 73.678 20.675, 73.362 21.500 C 73.045 22.326, 73.332 23, 74 23 C 74.668 23, 75.006 23.563, 74.751 24.250 C 74.497 24.938, 74.568 29.212, 74.910 33.750 C 75.252 38.288, 75.138 42, 74.657 42 C 74.177 42, 74.066 43.125, 74.411 44.500 C 74.802 46.058, 74.614 47, 73.912 47 C 73.293 47, 73.045 47.675, 73.362 48.500 C 73.678 49.325, 73.471 50, 72.901 50 C 72.300 50, 72.148 50.892, 72.540 52.125 C 72.994 53.555, 72.852 54.027, 72.107 53.566 C 71.498 53.190, 71 53.359, 71 53.941 C 71 54.672, 86.180 55, 120 55 C 146.950 55, 169 54.651, 169 54.224 C 169 53.797, 167.313 53.509, 165.250 53.585 C 162.901 53.671, 162.528 53.564, 164.250 53.298 C 165.762 53.064, 166.995 52.789, 166.989 52.687 C 166.983 52.584, 166.308 50.291, 165.489 47.591 C 163.333 40.482, 163.565 28.186, 165.987 21.296 C 167.080 18.186, 167.868 15.583, 167.737 15.512 C 166.504 14.838, 152.623 13.115, 151.921 13.549 C 151.411 13.864, 151 22.785, 151 33.559 L 151 53 153.041 53 L 155.082 53 154.791 33.594 C 154.631 22.921, 154.838 14.397, 155.250 14.653 C 155.662 14.909, 156 23.866, 156 34.559 L 156 54 153 54 L 150 54 150 33 L 150 12 148.250 11.842 C 147.287 11.756, 145.938 11.706, 145.250 11.731 C 144.563 11.757, 144 11.351, 144 10.830 C 144 10.309, 143.588 10.136, 143.085 10.447 C 142.582 10.758, 141.985 10.456, 141.759 9.776 C 141.453 8.858, 140.242 9.038, 137.048 10.478 C 134.684 11.544, 133.256 12.585, 133.875 12.792 C 134.659 13.053, 135 19.348, 135 33.583 L 135 54 132 54 L 129 54 129 34 C 129 23, 129.338 14, 129.750 13.999 C 130.162 13.998, 130.369 22.773, 130.209 33.499 L 129.918 53 131.959 53 L 134 53 134 33.607 C 134 17.636, 133.746 14.116, 132.558 13.661 C 130.579 12.901, 124 14.053, 124 15.159 C 124 16.179, 118.060 15.773, 116.204 14.626 C 115.532 14.211, 114.124 14.143, 113.075 14.476 C 112.026 14.809, 110.891 14.633, 110.552 14.084 C 110.213 13.536, 109.275 13.341, 108.468 13.651 C 107.661 13.960, 107 13.689, 107 13.048 C 107 12.407, 106.550 12.160, 106 12.500 C 105.450 12.840, 105 16.016, 105 19.559 L 105 26 111.500 26 L 118 26 118 21 C 118 18.250, 118.450 16, 119 16 C 119.630 16, 120 22.810, 120 34.430 L 120 52.861 122.250 53.339 C 123.761 53.660, 123.515 53.765, 121.500 53.659 L 118.500 53.500 118.842 40 L 119.184 26.500 111.842 26.500 L 104.500 26.500 104.500 19 C 104.500 9.058, 102.552 7.448, 94.500 10.737 M 78.776 26.733 C 81.128 26.945, 84.728 26.942, 86.776 26.727 C 88.824 26.512, 86.900 26.339, 82.500 26.343 C 78.100 26.346, 76.424 26.522, 78.776 26.733 M 98 64.083 C 98 71.211, 100.083 73.866, 100.816 67.673 C 100.990 66.203, 101.751 65, 102.507 65 C 104.853 65, 105.318 62.896, 103.101 62.316 C 99.977 61.499, 100.560 60, 104 60 C 106 60, 107 59.500, 107 58.500 C 107 57.389, 105.833 57, 102.500 57 L 98 57 98 64.083 M 115 59 C 109.983 64.017, 114.969 72.868, 121.418 70.393 C 124.325 69.278, 123.183 67.197, 119.750 67.353 L 116.500 67.500 116.500 64 L 116.500 60.500 119.500 60.385 C 124.314 60.200, 124.606 60.017, 122.559 58.468 C 119.893 56.451, 117.371 56.629, 115 59 M 131.412 58.369 C 131.123 59.122, 131.024 62.160, 131.193 65.119 L 131.500 70.500 134.704 70.810 C 141.186 71.437, 145.237 61.299, 139.865 57.895 C 137.705 56.527, 131.996 56.847, 131.412 58.369 M 134 66.500 C 134 67.433, 134.944 68, 136.500 68 C 138.056 68, 139 67.433, 139 66.500 C 139 65.567, 138.056 65, 136.500 65 C 134.944 65, 134 65.567, 134 66.500 M 67 78.790 C 67 105.314, 85.830 119.930, 120 119.930 C 154.170 119.930, 173 105.314, 173 78.790 L 173 73 120 73 L 67 73 67 78.790 M 114.291 83.202 C 109.592 85.471, 110.280 96.907, 115.242 99.020 C 117.232 99.867, 117.262 99.963, 115.500 99.822 C 114.400 99.734, 112.281 100.252, 110.791 100.973 C 106.874 102.868, 108.681 105.963, 113.785 106.100 C 116.995 106.186, 117.160 106.295, 115 106.904 L 112.500 107.610 115.897 108.804 C 123.907 111.621, 136.052 103.590, 129.772 99.628 C 128.517 98.836, 127.509 99.314, 125.181 101.807 C 123.540 103.563, 121.862 105, 121.453 105 C 121.043 105, 121.899 103.896, 123.354 102.548 C 126.583 99.555, 126.701 97.605, 123.777 95.557 C 122.555 94.701, 122.050 94, 122.655 94 C 123.260 94, 124.308 94.666, 124.983 95.479 C 127.150 98.090, 132.262 100.194, 133.109 98.823 C 135.142 95.534, 127.318 88.011, 121.857 88.004 C 118.159 87.999, 116.772 91.629, 119.449 94.307 C 120.715 95.573, 120.706 95.993, 119.375 97.628 C 118.537 98.658, 118.153 98.910, 118.522 98.190 C 118.891 97.469, 118.658 95.590, 118.005 94.013 C 117.254 92.200, 117.152 90.550, 117.728 89.521 C 118.688 87.806, 118.223 81.952, 117.137 82.068 C 116.786 82.105, 115.506 82.615, 114.291 83.202 M 119.667 82.667 C 117.940 84.393, 119.082 87, 121.566 87 C 124.555 87, 127.589 88.420, 130.750 91.299 C 132.555 92.943, 133 93.044, 133 91.809 C 133 87.310, 122.336 79.997, 119.667 82.667 M 108.433 88.462 C 106.486 91.434, 105.567 97.981, 106.834 99.857 C 108.400 102.176, 112.350 100.277, 111.417 97.654 C 110.996 96.469, 110.620 93.362, 110.583 90.750 C 110.504 85.223, 110.534 85.255, 108.433 88.462" stroke="none" fill="#ebbb16" fill-rule="evenodd"/></svg>